<svg width="20" height="15" viewBox="0 0 20 15" fill="none" xmlns="http://www.w3.org/2000/svg">
<path d="M20 1.77672C19.2477 2.07961 18.452 2.28092 17.6375 2.37445C18.4959 1.90435 19.1376 1.15994 19.4412 0.282291C18.6376 0.722162 17.7585 1.03196 16.8418 1.19829C16.2797 0.643876 15.5498 0.258402 14.7471 0.0919881C13.9443 -0.0744262 13.106 -0.0140825 12.3409 0.265173C11.5758 0.544429 10.9195 1.02968 10.4572 1.65783C9.99495 2.28598 9.74811 3.02797 9.7488 3.78734C9.74565 4.07711 9.77753 4.3663 9.84384 4.64955C8.21268 4.57574 6.61677 4.185 5.16043 3.50288C3.70409 2.82076 2.42012 1.86261 1.39245 0.691089C0.864844 1.52361 0.701343 2.51059 0.935321 3.4506C1.1693 4.3906 1.78312 5.21275 2.65149 5.74923C2.00274 5.73305 1.3677 5.57318 0.799894 5.28308V5.32432C0.800962 6.19826 1.1282 7.04519 1.72653 7.72254C2.32485 8.39988 3.15773 8.86628 4.08496 9.04323C3.73418 9.12858 3.37266 9.17049 3.00991 9.16788C2.74943 9.17212 2.48922 9.15044 2.23377 9.10321C2.49877 9.85431 3.00949 10.5111 3.69562 10.9832C4.38176 11.4554 5.20957 11.7196 6.0651 11.7395C4.61377 12.7871 2.82387 13.3554 0.981439 13.3537C0.653423 13.3557 0.325605 13.3383 0 13.3016C1.87484 14.4167 4.05953 15.0066 6.2899 14.9999C13.8348 14.9999 17.96 9.23123 17.96 4.23082C17.96 4.06344 17.9537 3.90205 17.9449 3.74161C18.7537 3.2074 19.4501 2.54155 20 1.77672Z" fill="#11052C"/>
</svg>
