<svg width="30" height="30" viewBox="0 0 30 30" fill="none" xmlns="http://www.w3.org/2000/svg">
<g clip-path="url(#clip0_11_217)">
<path d="M22.1737 11.739H14.0216V15.652H22.1737V11.739Z" fill="#11052C"/>
<path d="M22.1737 5.86951H14.0216V9.78252H22.1737V5.86951Z" fill="#11052C"/>
<path d="M12.0651 5.86951H7.82597V15.652H12.0651V5.86951Z" fill="#11052C"/>
<path d="M21.1793 28.0935L15.9784 26.3598V23.478H14.0217V26.36L8.82113 28.0935C8.30843 28.2641 8.03199 28.8182 8.20273 29.3306C8.37388 29.8455 8.93094 30.1201 9.44023 29.9493L15.0002 28.096L20.5602 29.9493C21.0698 30.1202 21.6266 29.8451 21.7977 29.3306C21.9684 28.8183 21.692 28.2641 21.1793 28.0935Z" fill="#11052C"/>
<path d="M29.0218 19.565H28.0436V1.95651H29.0218C29.5619 1.95651 30.0001 1.51864 30.0001 0.978283C30.0001 0.437872 29.5619 0 29.0218 0C16.444 0 13.8194 0 0.978648 0C0.438588 0 0.000423431 0.437872 0.000423431 0.978225C0.000423431 1.51864 0.438588 1.95645 0.978648 1.95645H1.95687V19.565H0.978648C0.438588 19.565 0.000423431 20.0028 0.000423431 20.5432C0.000423431 21.0836 0.438588 21.5214 0.978648 21.5214C4.27748 21.5214 25.9791 21.5214 29.0218 21.5214C29.5618 21.5214 30 21.0835 30 20.5432C30.0001 20.0029 29.5619 19.565 29.0218 19.565ZM24.1306 16.6302C24.1306 17.1706 23.6924 17.6085 23.1524 17.6085H6.84817C6.30811 17.6085 5.86995 17.1706 5.86995 16.6302V4.89124C5.86995 4.35083 6.30811 3.91302 6.84817 3.91302H23.1523C23.6924 3.91302 24.1306 4.35089 24.1306 4.89124V16.6302H24.1306Z" fill="#11052C"/>
</g>
<defs>
<clipPath id="clip0_11_217">
<rect width="30" height="30" fill="white"/>
</clipPath>
</defs>
</svg>
