<svg width="30" height="30" viewBox="0 0 30 30" fill="none" xmlns="http://www.w3.org/2000/svg">
<g clip-path="url(#clip0_11_236)">
<path d="M16.1329 6.46699C16.0946 5.75133 15.3632 5.87308 14.6496 5.87308C15.1767 6.01348 15.6754 6.20882 16.1329 6.46699Z" fill="#11052C"/>
<path d="M8.50404 4.6734C5.73361 4.6734 4.45842 8.18004 6.67312 9.9437C7.42811 7.92775 8.93106 6.48023 10.9014 5.90889C10.3624 5.16377 9.4916 4.6734 8.50404 4.6734Z" fill="#11052C"/>
<path d="M2.78067 9.39494C2.89358 9.75723 3.03986 10.1048 3.21364 10.4341L2.30358 11.3446C2.05919 11.589 2.05919 11.9857 2.30358 12.2306L3.90768 13.8352C4.02451 13.952 4.18457 14.0178 4.35139 14.0178C4.51639 14.0178 4.67538 13.952 4.79422 13.8352L5.70326 12.9247C5.83968 12.9968 5.9909 13.0411 6.13218 13.1034C6.13218 13.093 6.13117 13.0823 6.13117 13.0719C6.13117 12.3278 6.21664 11.6258 6.3688 10.9667C5.27125 10.2603 4.53889 9.03417 4.53889 7.63425C4.53889 5.44749 6.31772 3.66816 8.50398 3.66816C9.98436 3.66816 11.2625 4.4923 11.9448 5.69637C12.6732 5.60604 13.3575 5.60604 14.1811 5.76168C14.0752 5.44117 13.9505 5.1275 13.7944 4.83348L14.7044 3.92248C14.8232 3.80515 14.8889 3.64559 14.8889 3.47971C14.8889 3.31377 14.8232 3.15428 14.7044 3.03695L13.1012 1.43335C12.9786 1.31065 12.8185 1.24978 12.6585 1.24978C12.4985 1.24978 12.3385 1.31065 12.2167 1.43335L11.3037 2.34436C10.9739 2.16963 10.6274 2.02335 10.2642 1.91291V0.625836C10.2642 0.280299 9.98538 0 9.63883 0H7.37014C7.02555 0 6.74373 0.280299 6.74373 0.625836V1.91285C6.38151 2.02328 6.03489 2.16957 5.70409 2.34429L4.79422 1.4343C4.67146 1.3116 4.51146 1.25072 4.35139 1.25072C4.1914 1.25072 4.03045 1.3116 3.90869 1.4338L2.30358 3.03739C2.18676 3.15523 2.12102 3.31421 2.12102 3.48066C2.12102 3.64705 2.18676 3.8061 2.30358 3.92342L3.21364 4.83392C3.03979 5.16378 2.89358 5.51084 2.7827 5.87306H1.49663C1.15008 5.87306 0.870228 6.1538 0.870228 6.49985V8.7686C0.870228 9.11363 1.15008 9.39494 1.49663 9.39494H2.78067Z" fill="#11052C"/>
<path d="M22.4334 21.5347C23.4368 20.9844 24.1259 19.9311 24.1259 18.7087C24.1259 16.925 22.674 15.4741 20.8903 15.4741C20.263 15.4741 19.6817 15.6616 19.185 15.9718C18.8876 17.1557 18.4193 18.2882 17.8067 19.2718C19.5433 19.5983 21.1366 20.389 22.4334 21.5347Z" fill="#11052C"/>
<path d="M29.1287 17.4847C29.1287 17.1112 28.8253 16.8087 28.4532 16.8087H27.0652C26.9453 16.4175 26.7864 16.0425 26.5979 15.6867L27.5805 14.704C27.7082 14.5774 27.7788 14.4056 27.7788 14.2264C27.7788 14.0472 27.7081 13.8754 27.5805 13.7483L25.8507 12.0181C25.7192 11.8859 25.5454 11.8197 25.3727 11.8197C25.1999 11.8197 25.0271 11.8859 24.8956 12.0181L23.911 13.0012C23.5555 12.8127 23.1815 12.6547 22.7888 12.5354V11.1473C22.7888 10.7742 22.4874 10.4718 22.1144 10.4718H19.6671C19.5031 10.4718 19.3588 10.5375 19.2411 10.6348C19.4471 11.3867 19.56 12.2021 19.56 13.0719C19.56 13.6241 19.5169 14.1847 19.4364 14.7422C19.8919 14.5743 20.3768 14.4689 20.8903 14.4689C23.2286 14.4689 25.1312 16.371 25.1312 18.7088C25.1312 20.203 24.3508 21.5126 23.1796 22.268C24.0317 23.2026 24.7091 24.3114 25.1499 25.5537C25.2225 25.5787 25.2981 25.5969 25.3737 25.5969C25.5464 25.5969 25.7193 25.5312 25.8518 25.3991L27.5826 23.6688C27.7092 23.5421 27.7789 23.3704 27.7789 23.1912C27.7789 23.012 27.7092 22.8403 27.5826 22.7131L26.5979 21.73C26.7864 21.3746 26.9454 20.9995 27.0653 20.6079H28.4533C28.6319 20.6079 28.8057 20.5372 28.9314 20.4095C29.0581 20.2833 29.1298 20.1111 29.1298 19.9319L29.1287 17.4847Z" fill="#11052C"/>
<path d="M23.7715 26.1654C22.722 23.0774 19.9488 20.9536 16.7474 20.6645C15.6754 21.7997 14.3481 22.5199 12.8451 22.5199C11.3431 22.5199 10.0148 21.7998 8.94383 20.6645C5.74056 20.9536 2.96722 23.0774 1.91771 26.1659L1.33758 27.8736C1.17164 28.3649 1.2511 28.9064 1.55353 29.328C1.85589 29.7497 2.34284 30 2.86115 30H22.828C23.3474 30 23.8343 29.7497 24.1367 29.328C24.4381 28.9064 24.5186 28.3649 24.3517 27.8736L23.7715 26.1654Z" fill="#11052C"/>
<path d="M7.63912 13.0719C7.63912 16.9021 9.97071 21.012 12.8451 21.012C15.7206 21.012 18.052 16.9021 18.052 13.0719C18.0521 5.13235 7.63912 5.11661 7.63912 13.0719Z" fill="#11052C"/>
</g>
<defs>
<clipPath id="clip0_11_236">
<rect width="30" height="30" fill="white"/>
</clipPath>
</defs>
</svg>
