<svg width="30" height="30" viewBox="0 0 30 30" fill="none" xmlns="http://www.w3.org/2000/svg">
<path d="M9.70633 14.6676L19.7699 16.7632L28.1988 6.665C28.4468 6.36211 28.498 5.94338 28.3304 5.58963C28.1628 5.23588 27.8063 5.01031 27.4149 5.01031H8.65014C8.33941 5.01031 8.04584 5.15295 7.85377 5.39723C7.6617 5.6415 7.5924 5.9604 7.66568 6.26242L9.70633 14.6676Z" fill="#11052C"/>
<path d="M25.7411 16.4718C24.0514 16.4718 22.5885 17.4609 21.9007 18.8905L8.25209 15.9569L5.7863 5.78474C5.67615 5.33036 5.26932 5.01038 4.80177 5.01038H1.01303C0.453568 5.01038 0 5.46394 0 6.02341C0 6.58287 0.453568 7.03644 1.01303 7.03644H4.00499L6.43289 17.0524C6.52447 17.4303 6.82432 17.7224 7.20455 17.8041L8.92103 18.173L11.4673 23.5021C11.6356 23.8543 11.9911 24.0784 12.3813 24.0784C12.7716 24.0784 13.1271 23.8543 13.2954 23.5021L15.1971 19.522L21.4857 20.8736C21.5615 23.156 23.4406 24.9897 25.741 24.9897C28.0894 24.9897 29.9999 23.0792 29.9999 20.7307C29.9999 18.3823 28.0895 16.4718 25.7411 16.4718ZM12.3814 20.7156L11.4235 18.7109L13.1608 19.0843L12.3814 20.7156ZM25.7411 22.9635C24.716 22.9635 23.8506 22.2689 23.5894 21.3257L25.429 21.7212C25.5008 21.7366 25.5724 21.744 25.6429 21.744C26.1101 21.744 26.5302 21.4189 26.6323 20.9436C26.7499 20.3966 26.4017 19.8579 25.8547 19.7403L23.9956 19.3407C24.405 18.8276 25.0351 18.498 25.741 18.498C26.9722 18.498 27.9738 19.4996 27.9738 20.7307C27.9739 21.9619 26.9723 22.9635 25.7411 22.9635Z" fill="#11052C"/>
</svg>
