<svg width="20" height="20" viewBox="0 0 20 20" fill="none" xmlns="http://www.w3.org/2000/svg">
<path d="M20 9.99998C20 15.5228 15.5228 20 10 20C8.96691 20 7.9704 19.8433 7.03295 19.5525C7.4442 18.8843 8.0437 17.8104 8.26376 16.9464L8.88926 14.5678C9.21026 15.1933 10.165 15.7201 11.1773 15.7201C14.1897 15.7201 16.3625 12.9464 16.3625 9.49784C16.3625 6.1892 13.6629 3.72008 10.1979 3.72008C5.87693 3.72008 3.58887 6.6172 3.58887 9.76945C3.58887 11.2427 4.37076 13.0617 5.6218 13.646C5.8111 13.7365 5.9181 13.6954 5.95922 13.5143C5.97286 13.4563 6.01055 13.305 6.05527 13.1255C6.11846 12.8718 6.1957 12.5616 6.23905 12.3785C6.26376 12.2797 6.25551 12.1892 6.17322 12.0905C5.76172 11.5884 5.43247 10.6666 5.43247 9.81062C5.43247 7.60483 7.10326 5.47318 9.95101 5.47318C12.4119 5.47318 14.1321 7.14394 14.1321 9.53901C14.1321 12.2386 12.7658 14.1151 10.9881 14.1151C10.0086 14.1151 9.26789 13.3003 9.50655 12.3044C9.60911 11.8796 9.74399 11.4433 9.87519 11.0189C10.1125 10.2511 10.3378 9.52235 10.3378 8.9711C10.3378 8.20567 9.9263 7.5637 9.07035 7.5637C8.06622 7.5637 7.25964 8.60075 7.25964 9.9917C7.25964 10.8723 7.55593 11.4732 7.55593 11.4732C7.55593 11.4732 6.5683 15.6625 6.38722 16.4443C6.18987 17.3077 6.26362 18.5244 6.35405 19.3145C2.63424 17.8574 0 14.2363 0 9.99998C0 4.47714 4.47717 0 10 0C15.5228 0 20 4.47714 20 9.99998Z" fill="#11052C"/>
</svg>
